<?xml version="1.0" encoding="UTF-8" standalone="no"?>
<!-- Created with Inkscape (http://www.inkscape.org/) -->

<svg
   xmlns:dc="http://purl.org/dc/elements/1.1/"
   xmlns:cc="http://creativecommons.org/ns#"
   xmlns:rdf="http://www.w3.org/1999/02/22-rdf-syntax-ns#"
   xmlns:svg="http://www.w3.org/2000/svg"
   xmlns="http://www.w3.org/2000/svg"
   xmlns:sodipodi="http://sodipodi.sourceforge.net/DTD/sodipodi-0.dtd"
   xmlns:inkscape="http://www.inkscape.org/namespaces/inkscape"
   version="1.1"
   id="svg17296"
   xml:space="preserve"
   width="800"
   height="800"
   viewBox="0 0 800 800"
   sodipodi:docname="dutch-flag-brushstroke.svg"
   inkscape:version="0.92.4 (5da689c313, 2019-01-14)"><metadata
     id="metadata17302"><rdf:RDF><cc:Work
         rdf:about=""><dc:format>image/svg+xml</dc:format><dc:type
           rdf:resource="http://purl.org/dc/dcmitype/StillImage" /><dc:title></dc:title></cc:Work></rdf:RDF></metadata><defs
     id="defs17300"><clipPath
       clipPathUnits="userSpaceOnUse"
       id="clipPath17312"><path
         d="M 0,600 H 600 V 0 H 0 Z"
         id="path17310"
         inkscape:connector-curvature="0" /></clipPath></defs><sodipodi:namedview
     pagecolor="#ffffff"
     bordercolor="#666666"
     borderopacity="1"
     objecttolerance="10"
     gridtolerance="10"
     guidetolerance="10"
     inkscape:pageopacity="0"
     inkscape:pageshadow="2"
     inkscape:window-width="1920"
     inkscape:window-height="1018"
     id="namedview17298"
     showgrid="false"
     inkscape:zoom="0.89768817"
     inkscape:cx="398.30508"
     inkscape:cy="455.9322"
     inkscape:window-x="-8"
     inkscape:window-y="-8"
     inkscape:window-maximized="1"
     inkscape:current-layer="g17304" /><g
     id="g17304"
     inkscape:groupmode="layer"
     inkscape:label="Holland-flag-paint-publicdomainvectors.org"
     transform="matrix(1.3333333,0,0,-1.3333333,0,800)"><g
       id="g17306"><g
         id="g17308"
         clip-path="url(#clipPath17312)"><path
           d="m 49.515,292.404 c -0.739,-3.148 2.693,-1.963 1.961,-5.111 -1.605,-0.238 -4.25,-2.323 -6.27,-3.69 -0.208,-0.141 -0.413,-0.277 -0.606,-0.4 -0.341,-0.211 -1.221,-0.692 -1.88,-1.041 3.213,-0.808 6.03,2.615 3.842,-0.998 1.688,0.972 3.413,1.722 4.782,2.439 0.405,0.212 0.781,0.421 1.112,0.63 -0.519,-0.335 -0.703,0.481 0,1.028 1.477,1.133 4.269,2.297 4.915,1.012 -0.052,0.102 -3.069,-1.553 -2.948,-2.04 1.723,-0.92 3.111,2.597 3.807,0.459 -3.221,-0.371 -4.242,-3.028 -6.754,-4.143 4.026,-1.062 8.035,3.149 10.804,0 -2.002,0.876 -6.097,-0.882 -2.948,-2.033 0.011,1.332 2.722,1.295 2.948,0 -2.682,0.738 -1.979,-2.034 -3.928,-2.052 -1.919,2.49 -9.53,1.009 -9.663,-1.522 -0.869,-0.489 -1.607,-1.101 -2.127,-1.942 1.848,-0.686 2.604,-0.754 2.966,-0.582 -0.005,-0.012 -0.009,-0.022 -0.013,-0.032 1.791,0.081 2.803,0.384 3.402,0.767 0.166,-0.046 0.34,-0.096 0.525,-0.153 0.38,1.422 0.778,1.987 1.212,2.264 0.698,-0.147 2.488,-0.214 3.698,0.18 -4.039,-4.319 3.922,-1.914 4.908,-4.085 -1.425,-0.55 -5.07,1.2 -4.908,-1.025 3.749,-1.764 6.46,1.746 6.875,-3.06 -3.195,-0.083 -6.045,-0.521 -7.856,-2.039 3.657,-1.715 6.172,1.584 9.817,2.039 -0.081,-0.004 2.498,-1.133 3.928,-1.018 6.2,0.473 10.274,1.127 15.718,-2.04 -4.412,-2.292 -8.709,3.803 -10.803,-2.046 3.933,1.333 6.461,-1.764 8.842,-2.045 2.031,-0.229 4.338,2.021 5.896,0 -8.007,-3.786 -11.872,3.713 -20.627,0 -2.729,1.529 1.701,4.175 -0.987,5.11 -1.511,-2.141 -5.831,-0.372 -1.967,-3.065 -3.045,-0.114 -2.803,3.208 -6.875,2.046 -1.166,-4.283 4.141,-1.83 4.914,-4.091 -3.963,1.073 -1.229,-2.227 -2.947,-3.06 -2.781,-1.367 -6.15,1.627 -10.804,-1.025 5.612,-0.48 5.745,-0.324 9.817,-2.04 -0.479,3.364 5.67,4.277 5.895,1.02 -1.154,-0.156 -2.78,0.174 -2.947,-1.02 1.863,-1.931 5.727,3.593 7.863,-1.02 -1.858,-0.227 -2.17,1.146 -3.929,1.02 -0.814,-3.726 3.997,-2.171 4.908,-3.07 0.611,-0.589 -1.811,-2.003 0,-2.04 4.679,4.732 5.936,-2.82 10.804,0 -0.461,-4.23 4.597,-2.711 6.882,-4.091 0.104,1.247 0.282,2.423 1.961,2.045 2.145,-0.228 5.284,-4.612 6.875,-2.045 -1.69,-0.049 -2.526,0.792 -2.947,2.045 6.668,1.422 10.584,0.295 14.737,-3.053 -3.31,-0.655 -9.125,1.301 -10.809,-1.02 6.841,-2.033 13.013,1.956 17.674,-3.071 -1.742,-0.234 -4.915,1.027 -3.922,-2.046 19.207,-3.85 36.748,-9.453 57.947,-11.235 0.138,-1.356 -3.992,-3.077 -0.981,-4.078 0.576,5.357 18.949,2.79 19.647,2.033 0.599,-0.646 -1.812,-1.974 0,-2.033 0.473,1.207 1.038,2.308 1.966,3.053 4.125,-0.99 9.685,0 12.766,0 1.037,0 2.567,-1.122 2.942,-1.02 0.311,0.091 0.646,3.713 2.952,2.045 -0.369,-3.316 -3.449,-2.074 -4.914,-3.059 -0.808,-0.546 0.312,-1.697 -0.98,-2.045 0.368,0.097 -0.508,2.273 -1.962,2.045 -1.281,-0.21 -0.923,-1.656 -1.967,-2.045 -0.282,2.099 -2.624,2.035 -3.928,3.059 -0.392,-1.757 1.453,-2.621 0,-3.059 -6.598,0.318 -10.504,0.978 -16.699,1.026 -1.713,0.006 -3.172,-1.242 -4.914,-1.026 -1.287,0.156 -1.333,1.08 -2.942,1.026 -1.777,-0.072 -2.261,-1.224 -3.934,-1.026 -0.219,0.025 -2.538,1.938 -2.941,2.045 -5.325,1.338 -10.632,0.145 -15.719,1.014 -1.524,0.264 -2.561,1.674 -3.922,2.045 -1.54,0.421 -3.369,-0.33 -4.915,0 -1.707,0.361 -3.149,2.519 -4.915,3.066 -1.198,0.371 -2.699,-0.282 -3.922,0 -0.374,0.089 -2.434,1.877 -2.953,2.039 -3.582,1.086 -5.607,0.276 -8.837,1.026 -1.113,0.252 -2.192,1.944 -2.953,2.039 -1.788,0.247 -2.216,-0.959 -3.922,-1.02 -1.103,-0.041 -1.524,1.441 -1.974,0 4.626,-1.205 1.858,-2.963 0,-5.104 6.818,0.894 8.399,-4.169 13.752,-2.046 -1.904,-3.412 0.358,-0.551 2.953,-1.025 1.293,-0.228 1.996,-1.758 2.954,-2.034 1.477,-0.437 3.46,0.54 4.902,0 0.266,-0.107 0.658,-1.835 0.981,-2.045 3.242,-2.045 7.28,0.083 9.829,0 1.91,-0.078 5.18,-1.583 7.85,-2.045 7.545,-1.266 13.504,-1.565 19.642,-3.06 -5.492,0.906 -3.658,-1.037 -4.909,-3.064 -3.802,1.523 -13.92,1.822 -17.669,0 9.293,-0.948 25.669,-1.175 36.341,-6.136 -4.113,-0.204 -14.837,0.905 -7.863,-2.047 -3.184,-0.574 -4.943,0.313 -5.9,2.047 0.091,-0.325 -2.199,-3.18 -3.923,-2.047 -0.623,0.421 1.834,2.095 0,2.047 -0.513,-0.013 -1.154,-2.095 -2.947,-2.047 -3.519,0.115 -6.813,4.086 -10.804,2.047 1.159,-0.151 2.791,0.179 2.947,-1.014 -14.813,1.146 -30.658,4.798 -43.221,5.103 1.466,0.169 3.635,-0.365 3.934,1.027 -8.41,-0.57 -14.755,6.43 -21.608,4.084 5.428,-1.847 11.49,-3.034 16.693,-5.111 -1.742,-0.234 -4.914,1.033 -3.934,-2.05 2.596,-1.583 16.053,-4.026 15.724,-1.014 -2.006,-0.875 -5.421,1.607 -2.952,2.039 3.795,-2.812 8.317,-2.003 12.77,-3.064 0.288,-0.067 1.5,-1.945 1.973,-2.047 1.73,-0.354 3.969,0.571 5.883,0 1.339,-0.383 2.838,-2.603 3.934,-3.053 3.231,-1.355 5.78,-0.402 8.837,-1.019 2.388,1.373 0.612,2.033 1.967,3.053 2.475,0.383 4.35,-1.644 6.875,-2.034 3.629,-0.576 8.399,1.051 13.752,1.014 6.732,-0.035 15.165,-1.451 21.602,0 0.536,0.126 -0.167,1.943 0.992,2.039 5.042,0.462 13.509,-1.47 20.616,-1.019 7.534,0.498 11.23,1.332 14.732,-3.053 -14.744,-3.15 -32.319,-3.089 -48.118,-4.085 -4.742,-0.305 -8.918,-2.285 -12.771,-1.026 0.756,0.227 1.938,0.024 1.961,1.026 -4.217,-2.64 -8.018,0.119 -10.804,-3.077 16.584,-0.468 35.48,1.577 55,3.077 3.749,0.282 10.008,0.605 14.732,1.014 10.746,0.935 26.251,5.867 35.365,3.071 -0.756,0.227 -2.053,-1.007 -1.961,-1.032 2.035,-0.414 3.49,1.896 4.908,0 -2.51,-0.457 -4.522,-1.434 -5.895,-3.053 3.494,-0.87 5.883,2.958 6.875,-1.026 -4.741,-0.181 -6.702,-3.245 -9.823,-5.104 4.655,0.521 3.923,1.282 1.968,-2.052 2.791,0.18 4.094,1.871 6.875,2.052 0.006,-1.028 -0.796,-1.224 -0.986,-2.052 3.304,-0.108 6.062,2.969 7.856,2.052 0.3,-0.156 -1.026,-2.052 -0.976,-2.052 2.701,-0.138 3.334,0.695 6.876,1.024 -0.057,-1.307 -1.256,-1.414 -0.986,-3.057 3.496,-1.59 0.606,3.466 2.948,3.057 2.035,-0.611 6.453,1.261 6.881,-1.024 -2.785,0.853 -2.555,-1.439 -4.914,-1.02 -1.217,-3.298 3.178,-0.78 1.966,-4.084 -1.603,0.75 -4.278,-2.028 -1.966,-2.041 0.133,1.68 6.742,1.68 6.869,0 -2.711,1.344 -3.362,-4.041 -1.955,-1.02 2.867,-0.274 3.011,2.31 5.89,2.04 -0.299,-1.234 2.839,-3.52 2.947,-1.02 -5.22,1.704 5.809,2.034 8.831,2.041 -1.654,-3.558 -0.357,-3.57 1.974,-5.112 -1.651,-1.409 -6.519,-4.715 -4.915,-6.124 2.988,4.217 12.569,5.273 12.769,9.195 5.227,0.697 6.957,5.028 13.752,4.086 -0.143,-1.211 -1.753,-2.315 0,-3.066 2.776,3.647 7.54,5.206 9.818,7.149 2.757,2.34 5.267,4.459 7.856,6.132 2.423,1.553 3.363,2.705 4.915,4.079 1.085,0.978 2.866,1.056 3.929,2.051 2.508,2.317 5.336,6.49 6.881,8.164 1.361,1.482 2.999,1.991 3.922,3.072 1.165,1.344 1.742,3.557 2.948,5.104 1.247,1.59 2.774,2.513 3.927,4.091 3.323,4.511 6.518,9.25 8.843,13.274 2.192,3.785 4.24,6.826 4.915,11.229 5.947,2.327 10.567,6.034 17.679,7.156 2.456,-9.741 -1.327,-19.646 -1.967,-29.626 -0.087,-1.29 1.079,-1.403 0.981,-3.059 -0.352,-6.058 -2.164,-13.701 -0.981,-19.405 0.312,-1.517 1.753,-2.381 1.967,-4.09 0.381,-3.09 -1.107,-7.264 0.981,-10.216 -0.172,2.826 1.511,3.515 2.941,2.044 -0.818,-1.186 -1.291,-2.739 -0.975,-5.102 5.335,1.564 1.887,-4.674 1.962,-5.106 -0.018,0.048 1.777,-1.714 1.967,-2.044 3.126,-5.616 -1.823,-12.375 -0.991,-19.412 6.004,-0.792 3.528,7.235 4.913,11.235 0.992,1.122 4.223,5.015 1.962,6.136 0.304,-1.241 -2.832,-3.527 -2.943,-1.025 0.474,4.265 3.219,6.19 5.895,8.169 -1.983,0.834 0.618,5.388 0.981,7.149 -3.691,0.782 -0.674,-5.421 -4.914,-4.083 0.126,1.698 -3.179,6.496 0.981,6.13 -0.133,-1.212 -1.743,-2.316 0,-3.071 4.198,2.693 4.636,6.879 4.914,9.196 3.04,-2.82 3.783,-8.668 2.941,-11.229 -0.034,-0.127 -1.949,0.096 -1.96,0 -0.138,-2.448 1.199,-4.828 0.98,-7.151 -0.132,-1.451 -1.638,-2.147 -1.961,-4.085 -0.265,-1.662 0.208,-3.449 0,-5.11 3.852,1.402 2.894,6.388 4.914,9.195 0.624,0.859 2.04,0.912 2.761,1.783 -0.739,-0.76 -0.215,4.149 1.172,3.323 0.613,-1.747 2.966,-1.693 3.924,-3.067 -0.588,-1.529 -4.938,-4.263 -2.943,-5.103 1.466,1.198 2.769,2.561 3.923,4.083 1.125,-3.208 -1.54,-2.487 -1.961,-4.083 2.988,-3.204 4.239,5.891 7.856,2.032 0.288,6.515 3.125,10.378 8.849,11.24 1.073,2.965 1.21,6.906 4.902,7.158 -0.161,-2.634 -4.164,-6.473 -1.961,-8.182 1.651,3.624 3.519,7.132 4.914,10.209 0.509,1.146 1.755,1.908 1.962,3.077 0.035,0.211 -1.575,0.75 -0.98,2.034 0.201,0.451 1.557,1.397 1.962,2.052 1.972,3.166 2.848,6.633 5.887,8.169 1.322,-7.528 -3.292,-14.252 -1.965,-18.385 2.906,3.102 1.902,10.287 4.914,13.269 2.948,-8.261 -3.126,-17.509 -1.961,-23.484 2.238,4.139 1.534,8.625 2.941,13.268 0.715,2.357 3.034,4.667 3.928,7.163 1.091,3.023 0.185,4.312 0.986,6.13 1.166,2.614 3.45,6.1 3.93,8.163 0.362,1.608 -0.388,3.515 0,5.105 0.097,0.408 1.839,2.502 1.96,3.071 0.64,2.928 0.099,6.251 0.986,9.189 0.093,0.288 1.847,0.607 1.962,1.021 1.095,4.185 0.311,6.027 0.981,9.194 1.556,7.241 5.184,13.455 5.895,20.431 2.791,0.858 5.958,1.931 6.874,1.02 0.808,-0.798 0.901,-0.306 1.968,-1.02 0.87,-0.582 2.457,-2.777 2.947,-3.065 1.685,-1.006 4.084,-0.911 5.896,-2.046 1.551,-0.971 2.762,-3.526 3.927,-4.084 2.614,-1.243 6.185,-0.99 8.832,-2.04 4.764,-1.882 7.602,-5.435 11.79,-4.085 -2.78,1.531 -4.54,4.126 -8.836,4.085 -3.415,3.755 -6.681,7.75 -10.805,11.235 -0.895,0.744 -3.605,0.966 -4.908,2.034 -1.442,1.188 -2.791,3.166 -2.954,5.11 3.669,-0.654 4.822,-4.509 8.843,-2.039 1.159,-1.926 5.093,-6.203 6.87,-4.085 -1.638,1.656 -4.522,3.083 -6.87,5.105 -2.233,1.919 -5.659,4.03 -4.908,6.124 3.184,-2.837 8.375,-8.955 11.778,-8.163 -3.541,1.114 -1.743,3.077 -2.942,4.078 0.595,-0.491 -2.249,-0.959 -1.962,1.025 5.515,-0.174 -3.414,3.456 0,4.086 1.153,-0.15 2.227,-1.817 2.943,0 -1.035,0.814 -2.714,0.959 -3.502,2.028 h 2.005 c 0.33,-0.512 0.681,-0.999 1.497,-1.002 0.101,0.358 0.145,0.687 0.163,1.002 h 1.684 c -0.595,0.596 -1.216,0.979 -1.832,1.28 -0.053,0.163 -0.107,0.326 -0.181,0.474 h -0.909 c -1.08,0.439 -2.087,0.843 -2.847,1.936 0.164,0.979 0.126,3.318 -0.406,5.148 h -1.173 c -0.111,-0.022 -0.238,-0.036 -0.389,-0.037 -0.026,0.012 -0.049,0.026 -0.075,0.037 H 49.563 c -0.016,-0.012 -0.033,-0.024 -0.048,-0.037"
           style="fill:#3264a8;fill-opacity:1;fill-rule:nonzero;stroke:none"
           id="path17314"
           inkscape:connector-curvature="0" /><path
           d="m 42.72,282.162 c -0.029,0.007 -0.058,0.013 -0.088,0.021 -1.174,-0.668 -0.703,-0.441 0.088,-0.021"
           style="fill:#3264a8;fill-opacity:1;fill-rule:nonzero;stroke:none"
           id="path17316"
           inkscape:connector-curvature="0" /><path
           d="m 537.664,288.319 c -0.328,1.825 -1.203,3.081 -2.286,4.122 h -3.127 c 2.459,-0.696 3.303,-3.068 5.413,-4.122"
           style="fill:#3264a8;fill-opacity:1;fill-rule:nonzero;stroke:none"
           id="path17318"
           inkscape:connector-curvature="0" /><path
           d="m 528.827,292.404 c 0.073,0.017 0.136,0.023 0.207,0.037 h -0.209 c 0,-0.012 0.002,-0.024 0.002,-0.037"
           style="fill:#3264a8;fill-opacity:1;fill-rule:nonzero;stroke:none"
           id="path17320"
           inkscape:connector-curvature="0" /><path
           d="m 41.86,275.757 c -0.296,-0.203 -0.581,-0.381 -0.86,-0.539 v -0.231 c 2.23,-0.38 4.488,-0.166 7.563,0.77 z"
           style="fill:#3264a8;fill-opacity:1;fill-rule:nonzero;stroke:none"
           id="path17322"
           inkscape:connector-curvature="0" /><path
           d="m 538.646,274.014 c 0.005,0.719 -0.114,1.285 -0.305,1.743 h -2.84 c 0.965,-0.666 1.988,-1.276 3.145,-1.743"
           style="fill:#3264a8;fill-opacity:1;fill-rule:nonzero;stroke:none"
           id="path17324"
           inkscape:connector-curvature="0" /><path
           d="m 523.919,294.443 c 1.504,0.696 3.923,-1.678 2.35,-2.002 h 1.173 c -0.546,1.882 -1.614,3.228 -3.523,2.002"
           style="fill:#ffffff;fill-opacity:1;fill-rule:nonzero;stroke:none"
           id="path17326"
           inkscape:connector-curvature="0" /><path
           d="m 66.208,390.454 c -1.858,0.119 -0.687,3.377 -2.948,3.064 -0.017,-4.588 3.64,-7.407 0,-10.215 3.271,0.708 1.575,-2.105 0.981,-3.059 5.901,-0.467 2.243,-2.507 1.967,-6.13 3.749,-2.219 3.08,0.941 4.908,3.072 0.676,-6.594 -0.639,-11.806 2.953,-12.268 -4.031,-2.933 -0.363,-10.036 0,-15.307 0.053,-0.949 -0.98,-1.895 -0.986,-2.051 -0.057,-2.455 2.85,-6.185 0,-7.15 -0.998,4.186 -1.725,8.835 -1.967,11.234 -0.496,4.955 0.837,12.507 -3.928,13.274 0.658,-11.913 2.815,-27.706 1.967,-37.79 0.052,1.914 -0.756,2.166 -1.967,1.026 0.058,1.308 1.258,1.41 0.987,3.067 -2.682,0.089 -1.985,-1.711 -3.934,0 1.874,-4.789 0.467,-9.317 0.986,-14.308 0.369,-3.604 2.561,-8.308 1.961,-11.228 -1.853,-9.025 -11.121,-7.991 -17.625,-13.244 h 476.242 c -2.882,1.31 -3.292,4.079 -1.886,6.093 1.46,-2.211 4.888,-2.382 4.906,-6.093 h 0.209 c 1.339,0.277 2.375,0.239 3.217,0 h 3.127 c -1.808,1.74 -4.191,2.879 -5.57,5.067 1.303,2.502 3.657,-1.12 3.923,1.026 -4.333,3.659 -8.848,7.132 -12.759,11.229 5.387,1.518 4.302,-3.69 7.855,-4.078 2.619,-0.122 -2.711,4.001 -0.979,4.078 1.246,0.06 3.368,-7.24 6.863,-4.078 -4.741,2.884 -6.829,8.547 -10.792,12.249 1.147,1.175 3.473,1.164 5.889,1.025 -0.882,-3.077 2.313,-1.709 3.923,-3.071 2.555,-2.13 4.521,-7.457 6.886,-6.125 -4.013,3.726 -8.496,9.231 -12.769,11.23 -0.976,0.467 -3.381,3.49 -3.929,4.097 -1.143,1.242 -1.344,3.341 -2.947,4.084 3.501,0.522 5.975,-5.284 7.855,-3.065 -0.842,1.259 -6.327,2.826 -3.928,4.085 2.141,-1.223 5.711,-6.256 7.852,-4.085 -1.904,-0.12 -2.914,2.184 -3.924,3.065 -1.257,1.086 -4.112,1.692 -3.928,4.086 3.318,1.631 4.187,-4.338 5.89,-1.027 -3.495,1.482 -5.844,4.139 -7.855,7.156 2.283,0.337 4.232,1.045 4.914,3.06 -4.085,0.186 -5.405,-1.769 -7.863,1.025 -0.715,2.046 1.886,1.98 1.968,3.066 -0.023,-0.27 -1.876,0.564 -1.968,1.02 -0.375,1.877 1.569,4.654 1.968,7.143 -3.889,-1.344 -1.49,10.624 -0.981,11.247 0.553,0.672 3.236,-0.588 2.947,1.013 -1.69,-0.059 -2.52,0.792 -2.947,2.04 3.731,4.283 -0.22,16.573 6.876,17.372 -1.085,5.554 2.07,6.688 3.922,9.184 -1.69,0.407 -2.516,-1.512 -2.943,0 5.925,2.783 13.06,-1.524 17.675,3.065 -6.427,0.552 -11.18,-0.624 -16.694,-1.021 -1.678,2.046 -1.43,8.284 0.981,9.202 8.242,-0.18 13.295,2.543 19.647,3.059 4.648,0.374 8.894,-0.434 11.352,0.799 H 65.351 c 0.869,-6.203 1.288,-13.348 0.857,-20.209"
           style="fill:#ffffff;fill-opacity:1;fill-rule:nonzero;stroke:none"
           id="path17328"
           inkscape:connector-curvature="0" /><path
           d="m 539.853,453.505 c -4.254,-0.483 -8.464,-0.835 -11.924,0 z m -67.01,82.663 c -27.434,-1.326 -57.424,0.576 -82.509,2.045 7.862,0.672 18.319,-1.355 24.555,1.027 -1.719,0.929 -4.897,0.341 -5.89,2.032 6.166,3.467 18.43,0.582 25.531,3.065 -3.341,1.392 -7.246,0.013 -8.838,0 -2.018,-0.011 -5.179,0.708 -6.87,1.02 -16.237,3.024 -32.03,3.066 -50.096,3.066 -7.811,0 -16.37,0.809 -23.569,0 -2.837,-0.318 -5.952,-1.8 -8.848,-2.04 -6.825,-0.575 -13.902,0.775 -20.627,0 -4.114,-0.48 -7.579,-2.586 -11.774,-3.059 -9.025,-1.026 -18.579,0.216 -27.513,-1.032 -2.094,-0.282 -3.79,-1.655 -5.889,-2.04 -3.951,-0.713 -8.826,0.193 -10.811,0 -3.218,-0.299 -6.737,-1.77 -9.816,-2.039 -5.492,-0.486 -11.33,0.529 -16.694,0 -4.511,-0.449 -9.806,-2.43 -14.744,-3.071 -12.297,-1.584 -24.698,-5.854 -34.366,-5.099 -0.174,-5.668 -8.226,0.912 -7.862,-1.02 0.606,-0.059 1.171,-0.162 0.986,-1.025 -0.26,-1.44 -2.157,-1.164 -2.948,-2.04 -4.62,-0.594 -6.933,-1.098 -9.822,-2.045 -3.116,-1.019 -7.141,-3.305 -8.844,-4.085 -2.612,-1.199 -5.934,-1.943 -8.83,-3.071 -5.895,-2.286 -11.744,-5.488 -16.705,-7.15 -2.544,-0.845 -6.819,-4.325 -8.837,0 0.605,3.119 5.283,2.002 5.895,5.111 -2.976,-0.247 -7.164,-5.638 -8.848,-1.02 0.68,2.021 5.861,-0.635 4.915,3.059 -3.865,1.164 -6.824,-3.077 -7.857,1.026 0.312,2.399 3.04,2.285 3.933,4.091 -5.202,-1.211 -4.441,-2.526 -6.887,1.02 -2.434,3.539 -4.418,9.549 -7.855,7.149 2.168,-0.876 4.008,-7.341 1.973,-9.189 -2.02,4.373 -3.543,9.244 -7.857,11.23 -0.3,-2.005 1.321,-2.028 1.961,-3.061 0.796,-1.295 1.297,-3.724 1.961,-5.11 1.754,-3.653 7.037,-9.999 4.915,-13.28 -0.439,5.146 -3.231,6.531 -4.915,9.195 -2.174,3.432 -2.613,7.894 -5.889,10.215 2.509,-6.507 4.113,-10.005 6.87,-16.345 -0.167,0.396 0.611,1.188 0.981,0 0.104,-0.318 1.984,-3.923 1.973,-5.111 -0.012,-0.708 -1.149,-1.614 -0.993,-2.045 0.993,-2.639 6.564,-4.037 2.953,-7.145 -2.215,0.426 0.15,5.598 -2.953,5.111 -0.865,-3.047 3.069,-6.226 0.993,-7.155 -1.997,3.382 -2.516,8.283 -5.896,10.215 -1.35,-2.327 2.532,-3.845 0,-4.085 -2.261,4.325 -3.727,9.687 -5.889,14.3 -0.848,1.8 -1.356,3.988 -1.967,5.111 -3.219,5.855 0.853,-6.095 -0.987,-7.157 1.414,-2.255 2.394,1.284 2.954,-1.019 -0.295,-2.754 4.1,-5.837 0.98,-8.176 0.058,2.208 -1.159,8.212 -2.947,5.111 3.138,-0.769 -1.027,-7.553 0.98,-7.145 0,0.565 0.79,1.158 0.987,0 -0.168,-3.042 2.273,-6.844 0.98,-11.241 -1.234,4.326 -2.97,10.708 -5.895,10.216 -0.669,2.711 -1.552,5.206 -2.948,7.15 -3.379,-2.945 3.15,-7.691 0,-10.209 0.566,3.52 -3.241,6.094 -4.908,9.183 -1.004,1.878 -1.136,4.594 -1.967,6.13 -0.623,1.164 -2.423,2.129 -2.947,3.072 0.467,-0.847 1.09,3.749 -0.981,1.019 2.809,-1.187 -1.587,-1.187 -1.962,0 -0.882,-3.39 5.452,-4.433 2.943,-6.13 0.069,2.513 -2.29,1.566 -3.929,3.059 -2.803,2.573 -5.006,8.362 -7.856,7.156 3.334,-4.018 7.614,-7.06 8.842,-13.28 -2.059,0.287 -2.232,3.268 -2.953,4.085 -1.805,2.075 -1.633,1.199 -3.928,2.039 -0.092,-4.517 5.365,-3.269 4.916,-8.17 0.293,-2.352 -2.839,-1.127 -2.949,-3.058 1.252,-1.494 4.43,-6.192 2.949,-7.151 -2.707,1.95 -5.862,3.449 -6.877,7.151 -5.514,0.179 3.416,-3.445 0,-4.091 -0.012,1.031 -1.725,1.289 -1.967,0 2.959,-3.066 8.924,-8.398 6.882,-13.27 -0.647,3.42 -3.761,4.26 -4.915,7.145 0.646,-6.832 5.705,-14.468 3.928,-20.431 -1.292,4.008 -1.955,10.954 -4.914,10.222 0.271,1.302 0.986,1.41 0.986,3.064 0,5.843 -1.338,-2.344 -0.986,-2.044 -0.739,-0.643 -4.759,4.114 -4.909,3.058 0.127,-3.653 5.503,-7.156 1.961,-11.234 0.196,2.927 0.127,5.566 -2.941,5.111 -1.206,-2.472 2.33,-2.136 1.961,-4.085 -0.064,-0.354 -2.377,-1.063 -1.961,-2.052 0.258,-0.6 3.599,-0.288 2.941,-2.04 -2.036,-0.569 -2.077,-1.595 -0.98,-3.065 -1.194,0.324 -3.381,-2.951 -0.981,-3.065 0.22,0.797 0.023,2.022 0.981,2.045 0.564,-3.305 -0.295,-5.14 -1.961,-6.13 1.196,-3.133 2.089,-7.267 2.751,-11.162 h 1.169 c -0.021,-1.823 -1.182,-5.136 -0.979,-6.877 0.347,-2.819 2.111,-5.411 1.967,-8.164 -0.058,-1.235 -2.06,-1.061 -1.967,-2.051 0.012,-0.078 1.811,0.084 1.967,0 2.14,-0.996 -0.963,-2.364 -0.98,-2.039 0.121,-2.058 1.747,-4.343 1.961,-7.145 0.109,-1.39 -1.172,-3.502 -0.981,-5.104 0.035,-0.276 1.805,-1.218 1.967,-2.052 -0.012,0.055 -1.286,-1.632 -0.986,-3.058 0.418,-1.951 0.793,-4.091 1.11,-6.352 h 496.437 c 0.576,0.29 1.056,0.691 1.418,1.247 -7.233,0.792 -9.643,-2.514 -14.731,0 1.845,0.534 7.989,1.786 5.882,3.059 -1.154,-0.151 -2.225,-1.812 -2.942,0 -0.219,3.683 9.506,2.309 6.877,5.104 -4.176,-0.227 -13.458,-2.081 -20.628,0 3.889,0.024 4.31,2.909 2.953,4.091 0.416,-1.691 -3.669,0.09 -3.932,1.02 1.464,0.186 3.622,-0.366 3.932,1.02 -3.091,-0.485 -4.013,1.272 -4.913,3.065 1.604,-0.744 4.267,2.028 1.96,2.033 0.428,-1.685 -3.662,0.096 -3.933,1.032 2.561,0.438 7.556,-0.138 10.809,2.04 6.005,1.877 -5.999,-0.192 -5.894,2.039 3.182,-0.581 4.573,0.702 6.875,1.025 6.622,-0.335 2.191,1.818 -1.961,1.026 -4.429,-1.553 -15.262,-1.811 -19.641,0 5.993,1.908 15.568,0.894 19.641,2.035 -8.266,1.691 4.649,0.827 3.922,4.09 -2.346,3.161 -5.203,-1.026 -7.855,-1.02 -3.363,0.006 -6.357,2.381 -9.819,3.059 5.399,0.181 11.433,-0.312 13.752,3.071 -0.197,3.197 -5.733,0.852 -6.875,3.06 5.584,0.665 13.728,-1.344 17.672,1.032 -2.092,0.564 -4.548,0.612 -7.161,0.452 0.094,0.073 0.199,0.135 0.286,0.215 h -2.942 c 2.619,2.633 -2.261,1.074 -0.98,5.105 1.949,-0.012 1.246,-2.784 3.922,-2.04 0.438,3.857 -5.122,1.47 -5.883,4.085 3.865,-0.281 6.817,0.39 7.855,3.059 -3.402,0.553 -9.321,-1.517 -9.827,2.046 7.428,0.45 12.879,2.951 17.685,6.123 -2.608,-1.211 -5.458,0.194 -8.837,0 -10.204,-0.563 -23.794,-3.478 -27.503,4.086 1.881,0.846 9.758,0.66 7.855,2.052 -6.021,1.457 -11.738,-2.743 -15.718,0 4.021,-1.237 7.176,2.158 10.81,3.064 2.048,0.504 3.721,-0.377 5.889,0 1.442,0.246 3.502,1.728 4.903,2.041 2.297,0.497 6.708,-1.963 6.888,2.045 -8.042,-2.868 -15.95,0.599 -23.581,1.019 -3.011,0.162 -6.495,-1.428 -9.817,-1.019 -1.921,0.227 -4.218,0.918 -5.895,2.044 -1.95,2.352 0.248,1.123 0.981,3.06 -4.431,-0.198 -11.797,-2.682 -15.714,0 5.095,1.667 10.163,-1.235 14.733,2.039 -3.104,2.177 -9.241,-3.431 -4.914,2.046 -3.3,0.636 -9.121,-1.313 -10.805,1.026 1.639,0.114 8.901,-0.565 5.894,1.014 -4.296,0.635 -7.854,2.044 -11.789,3.071 3.9,0.707 10.884,-1.782 11.789,2.033 -5.714,0.186 -10.854,-1.907 -15.716,0 2.975,1.35 8.421,0.108 10.808,2.051 -1.742,0.228 -4.919,-1.037 -3.927,2.034 3.282,-0.246 6.189,-2.189 7.857,1.026 -3.341,2.484 -6.923,-1.26 -9.824,2.039 3.127,1.524 9.16,0.011 11.784,2.046 -3.086,-1.17 -2.382,1.613 -3.928,2.045 -1.627,-1.788 -4.211,0.714 -6.876,1.02 -1.2,0.138 -1.385,-1.116 -2.941,-1.02 -4.881,0.3 -9.334,1.871 -11.791,2.039 0.739,2.309 5.504,0.402 7.856,1.02 1.38,-0.078 3.762,0.228 1.968,1.026 -1.632,-0.007 -3.276,0 -4.908,0 -0.992,0.804 -2.459,0.636 -3.936,3.071 4.575,1.104 8.111,-1.782 9.823,0 0.163,0.15 -7.97,2.046 -8.831,1.02 -1.262,0.053 -1.361,1.301 -2.953,1.02 -2.561,-2.501 -2.168,0.209 -2.941,1.019 -2.082,2.16 -10.163,-2.244 -9.829,2.045 5.844,0.049 12.586,-0.839 14.731,3.065 2.008,-0.929 6.449,-2.05 7.858,1.02 -3.243,-1.444 -2.447,2.082 -3.922,2.041 0.356,0.011 -1.27,-3.905 -3.936,-2.041 0.82,3.276 0.843,2.112 -0.98,4.085 10.394,0.235 21.955,-0.558 28.484,1.014 -7.475,3.54 -15.275,1.434 -23.568,1.026"
           style="fill:#b02b43;fill-opacity:1;fill-rule:nonzero;stroke:none"
           id="path17330"
           inkscape:connector-curvature="0" /></g></g></g></svg>